<svg width="331" height="117" viewBox="0 0 331 117" fill="none" xmlns="http://www.w3.org/2000/svg">
<path d="M75.32 93C71.608 93 68.344 92.232 65.528 90.696C62.712 89.096 60.504 86.888 58.904 84.072C57.368 81.256 56.6 77.992 56.6 74.28L56.6 36H40.28V23H71L71 74.28C71 76.008 71.512 77.416 72.536 78.504C73.624 79.528 75.032 80.04 76.76 80.04H92.12V93H75.32Z" fill="#2C2D32"/>
<path d="M117.547 93.96C112.235 93.96 108.011 92.52 104.875 89.64C101.803 86.76 100.267 82.856 100.267 77.928C100.267 72.616 102.091 68.552 105.739 65.736C109.451 62.856 114.762 61.416 121.674 61.416H132.618V56C132.618 53.952 131.883 52.32 130.411 51.104C129.003 49.888 127.083 49.28 124.651 49.28C122.411 49.28 120.555 49.792 119.083 50.816C117.611 51.84 116.715 53.248 116.395 55.04H102.475C103.051 49.728 105.355 45.536 109.387 42.464C113.483 39.328 118.731 37.52 125.131 37.52C131.851 37.52 137.163 39.424 141.067 42.752C145.035 46.016 147.019 50.432 147.019 56V93H133.099V84.36H130.795L133.195 81C133.195 84.968 131.755 88.136 128.875 90.504C126.059 92.808 122.283 93.96 117.547 93.96ZM122.923 83.4C125.739 83.4 128.043 82.664 129.835 81.192C131.691 79.656 132.618 77.672 132.618 75.24V69.576H121.963C119.787 69.576 118.027 70.216 116.683 71.496C115.339 72.712 114.667 74.344 114.667 76.392C114.667 78.568 115.403 80.296 116.875 81.576C118.347 82.792 120.363 83.4 122.923 83.4Z" fill="#2C2D32"/>
<path d="M159.461 93V37.52H173.381V47.52H177.605L173.381 50.88C173.381 46.4 174.661 44.16 177.221 41.6C179.781 39.04 183.237 37.52 187.589 37.52C192.709 37.52 196.805 39.552 199.877 43.136C203.013 46.72 204.581 51.488 204.581 57.44V93H190.181V58.88C190.181 56.128 189.445 54.016 187.973 52.544C186.565 51.008 184.549 50.24 181.925 50.24C179.365 50.24 177.381 51.008 175.973 52.544C174.565 54.016 173.861 56.128 173.861 58.88V93H159.461Z" fill="#2C2D32"/>
<path d="M232.928 93.96C227.616 93.96 223.392 92.52 220.256 89.64C217.184 86.76 215.648 82.856 215.648 77.928C215.648 72.616 217.472 68.552 221.12 65.736C224.832 62.856 230.144 61.416 237.056 61.416H248V56C248 53.952 247.264 52.32 245.792 51.104C244.384 49.888 242.464 49.28 240.032 49.28C237.792 49.28 235.936 49.792 234.464 50.816C232.992 51.84 232.096 54.208 231.776 56H217.856C218.432 50.688 220.736 45.536 224.768 42.464C228.864 39.328 234.112 37.52 240.512 37.52C247.232 37.52 252.544 39.424 256.448 42.752C260.416 46.016 262.4 50.432 262.4 56V93H248.48V84.36H246.176L248.576 81C248.576 84.968 247.136 88.136 244.256 90.504C241.44 92.808 237.664 93.96 232.928 93.96ZM238.304 83.4C241.12 83.4 243.424 82.664 245.216 81.192C247.072 79.656 248 77.672 248 75.24V69H237.344C235.168 69 233.12 69.72 231.776 71C230.432 72.216 230.048 74.344 230.048 76.392C230.048 78.568 230.784 80.296 232.256 81.576C233.728 82.792 235.744 83.4 238.304 83.4Z" fill="#2C2D32"/>
<path d="M248 69V56H278.72V69H248Z" fill="#70DDC9"/>
<path d="M313.943 93C308.567 93 304.343 91.464 301.271 88.392C298.199 85.32 296.663 81.096 296.663 75.72V48.96H282.743V36H296.663V21H311.062V36H330.742V48.96H311.062V75.72C311.062 78.6 312.503 80.04 315.383 80.04H329.783V93H313.943Z" fill="#70DDC9"/>
<path d="M40.28 69V56H71V69H40.28Z" fill="#9599EE"/>
<path d="M0.5 69V56H31.22V69H0.5Z" fill="#9599EE"/>
</svg>
